<svg xmlns="http://www.w3.org/2000/svg"> 
<symbol id="logo-svg" viewBox="0 0 47 32">
<path d="M11.6193 5.67803L0.537964 2.73551L11.6193 3.47114L17.8248 1.99988L24.0303 6.41366L28.9061 3.83896L34.2251 4.20677L43.5334 0.528625L42.2036 4.20677H46.6361L29.7926 14.1378L30.6791 19.655L36.8846 27.0113L31.5656 25.1722L33.3386 31.0572L17.3815 10.0918V7.88492L11.6193 5.67803Z" fill="#55A630"/>
</symbol>
<symbol id="phone" viewBox="0 0 37 38">
<path d="M24.5857 18.7111H28.6833C28.6833 12.973 24.094 8.31604 18.4393 8.31604V12.4741C21.8403 12.4741 24.5857 15.2599 24.5857 18.7111ZM32.7809 18.7111H36.8785C36.8785 8.37841 28.6218 0 18.4393 0V4.15802C26.3682 4.15802 32.7809 10.6653 32.7809 18.7111ZM34.8297 25.9876C32.2687 25.9876 29.8102 25.5718 27.5155 24.8026C27.3106 24.7402 27.0852 24.6986 26.8804 24.6986C26.3477 24.6986 25.8355 24.9065 25.4257 25.3015L20.9183 29.8754C15.1202 26.8816 10.367 22.0791 7.41668 16.1747L11.9241 11.5801C12.4977 11.0395 12.6616 10.2287 12.4363 9.50107C11.6782 7.17258 11.2684 4.67777 11.2684 2.07901C11.2684 0.935554 10.3465 0 9.21963 0H2.04881C0.921963 0 0 0.935554 0 2.07901C0 21.6009 15.5914 37.4222 34.8297 37.4222C35.9566 37.4222 36.8785 36.4866 36.8785 35.3432V28.0666C36.8785 26.9232 35.9566 25.9876 34.8297 25.9876ZM4.15908 4.15802H7.23229C7.37571 5.98755 7.68303 7.79628 8.15425 9.52186L5.69569 12.0375C4.87616 9.52186 4.34347 6.90231 4.15908 4.15802ZM32.7809 33.2018C30.0765 33.0147 27.454 32.4741 24.9955 31.6217L27.454 29.1269C29.1955 29.6259 30.978 29.9377 32.7809 30.0625V33.2018Z" fill="#2A2A2A"/>
</symbol>
<symbol id="arrow-down" viewBox="0 0 31 18">
<path d="M27.1663 0.118042L15.8031 11.0744L4.43987 0.118042L0.949219 3.49106L15.8031 17.8443L30.6569 3.49106L27.1663 0.118042Z" fill="#424242"/>
</symbol>
</svg>