<svg width="100" height="100" viewBox="0 0 100 100" fill="none" xmlns="http://www.w3.org/2000/svg">
<circle cx="50" cy="50" r="50" fill="#DDF4CB"/>
<g clip-path="url(#clip0_342_184)">
<path d="M48.9952 67.1266C58.9061 67.1266 66.9406 59.2307 66.9406 49.4906C66.9406 39.7505 58.9061 31.8546 48.9952 31.8546C39.0842 31.8546 31.0498 39.7505 31.0498 49.4906C31.0498 59.2307 39.0842 67.1266 48.9952 67.1266Z" fill="#FFC10D"/>
<path d="M49.0136 51.0862C49.004 51.0862 49.004 51.0862 48.9945 51.0862C48.9372 51.0971 48.9945 51.0862 49.0136 51.0862Z" fill="#194F82"/>
<path d="M48.7373 47.9044C48.7469 47.9044 48.7469 47.9044 48.7469 47.9044C48.8042 47.895 48.7469 47.895 48.7373 47.9044Z" fill="#194F82"/>
<path d="M48.7465 47.9044C48.7274 47.9044 48.7274 47.9044 48.7368 47.9044C46.97 47.773 45.5756 46.3088 45.5756 44.5537C45.5756 42.6953 47.1133 41.1842 49.0042 41.1842C50.8952 41.1842 52.4329 42.6953 52.4329 44.5537C52.4329 45.4265 53.1491 46.1398 54.0468 46.1398C54.935 46.1398 55.6608 45.436 55.6608 44.5537C55.6608 41.4938 53.512 38.9316 50.6182 38.2183V36.5945C50.6182 35.7217 49.902 35.0084 49.0042 35.0084C48.1065 35.0084 47.3903 35.7122 47.3903 36.5945V38.2183C44.506 38.9222 42.3477 41.494 42.3477 44.5537C42.3477 48.1578 45.3274 51.0956 49.0044 51.0956C49.0235 51.0956 49.0235 51.0956 49.0235 51.0956C50.7903 51.227 52.433 52.6631 52.433 54.437C52.433 56.2953 50.8954 57.8064 49.0044 57.8064C47.1134 57.8064 45.5758 56.2953 45.5758 54.437C45.5758 53.5641 44.8596 52.8508 43.9618 52.8508C43.0736 52.8508 42.3478 53.5547 42.3478 54.437C42.3478 57.4968 44.4966 60.059 47.3904 60.7723V62.3867C47.3904 63.2595 48.1066 63.9728 49.0044 63.9728C49.9022 63.9728 50.6184 63.269 50.6184 62.3867V60.7723C53.5026 60.0685 55.661 57.4966 55.661 54.437C55.6514 50.8234 52.4042 47.9044 48.7465 47.9044Z" fill="#194F82"/>
<path d="M48.9953 24.1677C56.3778 24.1677 63.3591 27.2931 68.2203 32.6524H61.8883C61.0001 32.6524 60.2743 33.3562 60.2743 34.2385C60.2743 35.1114 60.9905 35.8247 61.8883 35.8247H71.5533C72.4415 35.8247 73.1673 35.1208 73.1673 34.2385V24.7308C73.1673 23.858 72.4511 23.1447 71.5533 23.1447C70.6556 23.1447 69.9393 23.8485 69.9393 24.7308V29.8086C64.5051 24.2334 56.9794 21.0048 48.9951 21.0048C32.9982 21.0046 20 33.7787 20 49.5C20 50.3728 20.7162 51.0861 21.614 51.0861C22.5118 51.0861 23.228 50.3823 23.228 49.5C23.2185 35.5339 34.7842 24.1677 48.9953 24.1677Z" fill="#194F82"/>
<path d="M76.3862 47.9138C75.4981 47.9138 74.7722 48.6177 74.7722 49.5C74.7722 63.4661 63.2066 74.8323 48.9955 74.8323C40.4096 74.8323 32.4636 70.6368 27.6979 63.7477H34.4978C35.386 63.7477 36.1118 63.0439 36.1118 62.1616C36.1118 61.2887 35.3956 60.5754 34.4978 60.5754H24.8327C23.9446 60.5754 23.2188 61.2793 23.2188 62.1616V71.66C23.2188 72.5328 23.935 73.2461 24.8327 73.2461C25.7305 73.2461 26.4467 72.5423 26.4467 71.66V67.3895C31.8904 74.0158 40.1421 77.9955 49.0049 77.9955C65.002 77.9955 78.0002 65.2214 78.0002 49.5001C77.9906 48.6271 77.2744 47.9138 76.3862 47.9138Z" fill="#194F82"/>
</g>
<defs>
<clipPath id="clip0_342_184">
<rect width="58" height="57" fill="white" transform="translate(20 21)"/>
</clipPath>
</defs>
</svg>
