<svg width="100" height="100" viewBox="0 0 100 100" fill="none" xmlns="http://www.w3.org/2000/svg">
<circle cx="50" cy="50" r="50" fill="#DDF4CB"/>
<path fill-rule="evenodd" clip-rule="evenodd" d="M34.25 52.6528C33.7113 52.6528 33.1946 52.8667 32.8137 53.2477C32.4328 53.6286 32.2188 54.1453 32.2188 54.684C32.2188 55.2227 32.4328 55.7394 32.8137 56.1203C33.1946 56.5012 33.7113 56.7153 34.25 56.7153H50.5C51.0387 56.7153 51.5554 56.5012 51.9363 56.1203C52.3172 55.7394 52.5312 55.2227 52.5312 54.684C52.5312 54.1453 52.3172 53.6286 51.9363 53.2477C51.5554 52.8667 51.0387 52.6528 50.5 52.6528H34.25Z" fill="black"/>
<path fill-rule="evenodd" clip-rule="evenodd" d="M38.3125 46.559C37.7738 46.559 37.2571 46.773 36.8762 47.1539C36.4953 47.5349 36.2812 48.0516 36.2812 48.5903C36.2812 49.129 36.4953 49.6456 36.8762 50.0266C37.2571 50.4075 37.7738 50.6215 38.3125 50.6215H50.5C51.0387 50.6215 51.5554 50.4075 51.9363 50.0266C52.3172 49.6456 52.5312 49.129 52.5312 48.5903C52.5312 48.0516 52.3172 47.5349 51.9363 47.1539C51.5554 46.773 51.0387 46.559 50.5 46.559H38.3125Z" fill="black"/>
<path fill-rule="evenodd" clip-rule="evenodd" d="M44.4062 40.4653C43.8675 40.4653 43.3509 40.6792 42.9699 41.0602C42.589 41.4411 42.375 41.9578 42.375 42.4965C42.375 43.0352 42.589 43.5519 42.9699 43.9328C43.3509 44.3137 43.8675 44.5278 44.4062 44.5278H50.5C51.0387 44.5278 51.5554 44.3137 51.9363 43.9328C52.3172 43.5519 52.5312 43.0352 52.5312 42.4965C52.5312 41.9578 52.3172 41.4411 51.9363 41.0602C51.5554 40.6792 51.0387 40.4653 50.5 40.4653H44.4062Z" fill="black"/>
<path fill-rule="evenodd" clip-rule="evenodd" d="M36.0548 28.2897C35.597 28.3412 35.1703 28.5469 34.8448 28.8729L31.2028 32.5148L29.5921 30.9041C29.2112 30.5233 28.6946 30.3093 28.1559 30.3093C27.6173 30.3093 27.1007 30.5233 26.7198 30.9041C26.3389 31.285 26.125 31.8016 26.125 32.3403C26.125 32.8789 26.3389 33.3955 26.7198 33.7764L29.7667 36.8233C30.1476 37.2041 30.6642 37.418 31.2028 37.418C31.7414 37.418 32.258 37.2041 32.639 36.8233L37.7171 31.7452C38.0979 31.3643 38.3119 30.8477 38.3119 30.309C38.3119 29.7704 38.0979 29.2538 37.7171 28.8729C37.5016 28.6571 37.2402 28.4927 36.9525 28.3917C36.6647 28.2908 36.3579 28.2559 36.0548 28.2897Z" fill="black"/>
<path fill-rule="evenodd" clip-rule="evenodd" d="M32.2188 20.1528C25.5119 20.1528 20.0312 25.6334 20.0312 32.3403C20.0312 35.9315 21.6041 39.1706 24.0938 41.4055V64.8403C24.0938 65.379 24.3078 65.8956 24.6887 66.2765C25.0697 66.6574 25.5863 66.8715 26.125 66.8715H30.5406C31.385 69.2286 33.6501 70.934 36.2812 70.934C38.9124 70.934 41.1775 69.2286 42.0219 66.8715H56.5938H61.0093C61.8537 69.2286 64.1188 70.934 66.75 70.934C69.3812 70.934 71.6463 69.2286 72.4907 66.8715H78.9375C79.4762 66.8715 79.9928 66.6574 80.3737 66.2765C80.7547 65.8956 80.9687 65.379 80.9688 64.8403V50.6215C80.9691 50.1602 80.8124 49.7124 80.5244 49.352L72.3994 39.1957C72.209 38.9579 71.9674 38.7659 71.6927 38.6341C71.418 38.5022 71.1172 38.4338 70.8125 38.434H58.625V34.3715C58.6249 33.8328 58.4109 33.3162 58.03 32.9352C57.6491 32.5543 57.1325 32.3403 56.5938 32.3403H44.4062C44.4062 25.6334 38.9256 20.1528 32.2188 20.1528ZM32.2188 24.2153C36.7301 24.2153 40.3438 27.8289 40.3438 32.3403C40.3438 36.8516 36.7301 40.4653 32.2188 40.4653C30.4971 40.4653 28.9061 39.9386 27.5969 39.037C27.4399 38.8713 27.2562 38.7331 27.0533 38.6284C25.2425 37.1424 24.0938 34.884 24.0938 32.3403C24.0938 27.8289 27.7074 24.2153 32.2188 24.2153ZM43.704 36.4028H54.5625V62.809H42.0219C41.1775 60.452 38.9124 58.7465 36.2812 58.7465C33.6501 58.7465 31.385 60.452 30.5406 62.809H28.1562V43.8256C29.4284 44.2785 30.7956 44.5278 32.2188 44.5278C37.5025 44.5278 42.0226 41.1255 43.704 36.4028ZM58.625 42.4965H62.6875V52.6528C62.6876 53.1915 62.9016 53.7081 63.2825 54.089C63.6634 54.4699 64.18 54.684 64.7188 54.684H76.9062V62.809H72.4907C71.6463 60.452 69.3812 58.7465 66.75 58.7465C64.1188 58.7465 61.8537 60.452 61.0093 62.809H58.625V42.4965ZM66.75 42.4965H69.8365L76.335 50.6215H66.75V42.4965ZM36.2812 62.809C37.4271 62.809 38.3125 63.6944 38.3125 64.8403C38.3125 65.9862 37.4271 66.8715 36.2812 66.8715C35.1354 66.8715 34.25 65.9862 34.25 64.8403C34.25 63.6944 35.1354 62.809 36.2812 62.809ZM66.75 62.809C67.8959 62.809 68.7812 63.6944 68.7812 64.8403C68.7812 65.9862 67.8959 66.8715 66.75 66.8715C65.6041 66.8715 64.7188 65.9862 64.7188 64.8403C64.7188 63.6944 65.6041 62.809 66.75 62.809Z" fill="black"/>
</svg>
