<svg width="41" height="40" viewBox="0 0 41 40" fill="none" xmlns="http://www.w3.org/2000/svg">
<g clip-path="url(#clip0_217_224)">
<path d="M12.3783 1.72191e-07C11.9965 -0.000146539 11.6106 0.093455 11.2593 0.291368L9.95704 1.02492C6.99774 2.69171 5.82554 6.41552 6.09908 10.8609C6.37262 15.3062 8.08092 20.5951 11.1423 25.7683C14.2037 30.9415 18.0446 35.0294 21.8538 37.4832C25.663 39.9369 29.5544 40.8085 32.5137 39.1417L33.816 38.4082C34.8868 37.8049 35.2599 36.447 34.6416 35.4021L30.8821 29.0493C30.2637 28.0045 28.8718 27.6403 27.8008 28.2436L26.4986 28.9772C25.5018 29.5386 23.9603 29.2989 22.1837 28.1546C20.4072 27.0102 18.5091 25.013 17.0027 22.4675C15.4962 19.9219 14.6725 17.3198 14.5449 15.2465C14.4174 13.1732 14.9753 11.751 15.972 11.1896L17.2743 10.4561C18.3453 9.85281 18.7183 8.49485 18.0999 7.44998V7.44969L14.3404 1.09696C13.954 0.443947 13.2651 0.056924 12.5415 0.0057219C12.4873 0.00190741 12.4329 1.72191e-07 12.3783 1.72191e-07ZM12.407 1.45801C12.6592 1.46095 12.8972 1.5924 13.0382 1.83051L16.7976 8.18324C17.0124 8.5462 16.8943 8.97607 16.5224 9.18557L15.2201 9.91913C13.5197 10.877 12.8978 12.9634 13.0437 15.3345C13.1896 17.7058 14.0923 20.4838 15.7003 23.201C17.3083 25.9182 19.3231 28.0701 21.3551 29.3789C23.3871 30.6877 25.55 31.2056 27.2504 30.2477L28.5527 29.5141C28.9246 29.3046 29.3651 29.4199 29.5798 29.7829L33.3393 36.1356C33.554 36.4986 33.4361 36.9282 33.0641 37.1377L31.7618 37.8712C29.5064 39.1416 26.2363 38.5481 22.6824 36.2589C19.1285 33.9696 15.4044 30.0364 12.4446 25.0349C9.48485 20.0332 7.85535 14.9204 7.60016 10.773C7.34497 6.62561 8.45341 3.56596 10.7088 2.29559L12.0111 1.56203C12.104 1.50966 12.2013 1.47767 12.2983 1.46462C12.3347 1.45963 12.3711 1.45757 12.407 1.45801ZM9.11041 10.3133C8.90289 10.3082 8.73025 10.4683 8.72499 10.6707C8.72469 10.6829 8.72499 10.6951 8.72589 10.7073C8.96725 14.6307 10.5377 19.612 13.4212 24.4846C16.3047 29.3571 19.9416 33.1747 23.3036 35.3403C23.474 35.4562 23.7083 35.4154 23.8271 35.2494C23.9459 35.0833 23.9041 34.8546 23.7338 34.7387C23.7286 34.7351 23.7232 34.7316 23.7177 34.7282C20.4876 32.6476 16.9038 28.9023 14.0723 24.1178C11.241 19.3333 9.70832 14.4325 9.47628 10.6631C9.46741 10.4709 9.30756 10.3182 9.11041 10.3133Z" fill="black"/>
</g>
<defs>
<clipPath id="clip0_217_224">
<rect width="41" height="40" fill="white"/>
</clipPath>
</defs>
</svg>
