<svg width="31" height="31" viewBox="0 0 31 31" fill="none" xmlns="http://www.w3.org/2000/svg">
<g clip-path="url(#clip0_217_217)">
<path fill-rule="evenodd" clip-rule="evenodd" d="M13.5622 5.16671C8.92528 5.16671 5.16634 8.92565 5.16634 13.5625C5.16634 18.1995 8.92528 21.9584 13.5622 21.9584C18.1991 21.9584 21.958 18.1995 21.958 13.5625C21.958 8.92565 18.1991 5.16671 13.5622 5.16671ZM2.58301 13.5625C2.58301 7.49891 7.49855 2.58337 13.5622 2.58337C19.6258 2.58337 24.5413 7.49891 24.5413 13.5625C24.5413 16.129 23.6608 18.4896 22.1853 20.359L26.903 25.0767C27.4074 25.5811 27.4074 26.399 26.903 26.9034C26.3986 27.4078 25.5807 27.4078 25.0763 26.9034L20.3587 22.1857C18.4892 23.6612 16.1286 24.5417 13.5622 24.5417C7.49855 24.5417 2.58301 19.6261 2.58301 13.5625ZM12.2705 9.04171C12.2705 8.32835 12.8488 7.75004 13.5622 7.75004C16.7724 7.75004 19.3747 10.3524 19.3747 13.5625C19.3747 14.2759 18.7964 14.8542 18.083 14.8542C17.3696 14.8542 16.7913 14.2759 16.7913 13.5625C16.7913 11.7791 15.3456 10.3334 13.5622 10.3334C12.8488 10.3334 12.2705 9.75507 12.2705 9.04171Z" fill="white"/>
</g>
<defs>
<clipPath id="clip0_217_217">
<rect width="31" height="31" fill="white"/>
</clipPath>
</defs>
</svg>
