<svg width="29" height="28" viewBox="0 0 29 28" fill="none" xmlns="http://www.w3.org/2000/svg">
<path d="M9.25117 21.5551C7.57907 21.5551 6.22363 22.873 6.22363 24.4988C6.22363 26.1247 7.57914 27.4426 9.25117 27.4426C10.9233 27.4426 12.2787 26.1246 12.2787 24.4988C12.2788 22.873 10.9233 21.5551 9.25117 21.5551ZM9.25117 26.1343C8.32224 26.1343 7.56922 25.4021 7.56922 24.4989C7.56922 23.5957 8.32224 22.8635 9.25117 22.8635C10.1801 22.8635 10.9331 23.5957 10.9331 24.4989C10.9332 25.4021 10.1801 26.1343 9.25117 26.1343Z" fill="black"/>
<path d="M22.0334 21.5551C20.3613 21.5551 19.0059 22.873 19.0059 24.4988C19.0059 26.1247 20.3614 27.4426 22.0334 27.4426C23.7054 27.4426 25.0609 26.1246 25.0609 24.4988C25.0609 22.873 23.7055 21.5551 22.0334 21.5551ZM22.0334 26.1343C21.1045 26.1343 20.3514 25.4021 20.3514 24.4989C20.3514 23.5957 21.1045 22.8635 22.0334 22.8635C22.9623 22.8635 23.7154 23.5957 23.7154 24.4989C23.7154 25.4021 22.9623 26.1343 22.0334 26.1343Z" fill="black"/>
<path d="M28.8628 4.38303C28.7227 4.23421 28.531 4.14105 28.3246 4.12133L6.42519 3.82695L5.81968 2.02795C5.39311 0.825343 4.23489 0.0134604 2.92664 0H0.672794C0.301209 0 0 0.292874 0 0.654177C0 1.01548 0.301209 1.30835 0.672794 1.30835H2.92664C3.65816 1.32407 4.3023 1.78078 4.54138 2.45318L8.81361 14.9806L8.47724 15.7329C8.10205 16.6736 8.21473 17.7324 8.78 18.5786C9.33986 19.4096 10.2817 19.9225 11.303 19.9524H24.3888C24.7604 19.9524 25.0616 19.6595 25.0616 19.2982C25.0616 18.9369 24.7604 18.644 24.3888 18.644H11.3029C10.7262 18.63 10.1953 18.335 9.89005 17.859C9.5882 17.3888 9.5262 16.8096 9.72187 16.2889L9.99101 15.7002L24.1533 14.261C25.7089 14.0944 26.9886 12.9943 27.3491 11.5134L28.9638 4.93897C29.0366 4.74965 28.9979 4.53673 28.8628 4.38303ZM26.0371 11.2191C25.8187 12.1724 24.9864 12.8755 23.9851 12.9527L9.99101 14.3591L6.86251 5.13531L27.4836 5.42968L26.0371 11.2191Z" fill="black"/>
</svg>
