<svg width="100" height="100" viewBox="0 0 100 100" fill="none" xmlns="http://www.w3.org/2000/svg">
<circle cx="50" cy="50" r="50" fill="#DDF4CB"/>
<g clip-path="url(#clip0_340_183)">
<path d="M50.4999 71.9032C61.7683 71.9032 70.9032 62.7684 70.9032 51.5C70.9032 40.2316 61.7683 31.0967 50.4999 31.0967C39.2315 31.0967 30.0967 40.2316 30.0967 51.5C30.0967 62.7684 39.2315 71.9032 50.4999 71.9032Z" fill="#F9BA48"/>
<path d="M77.9996 51.5C77.9996 36.3368 65.663 24 50.5 24C45.7895 24 41.3531 25.1923 37.4738 27.2876C31.4966 24.3096 27.1808 23.8847 24.9888 26.0794C22.6007 28.4675 23.518 33.1584 26.2325 38.5803C24.1728 42.4347 23 46.833 23 51.5C23 66.663 35.3368 79 50.5 79C55.1625 79 59.5555 77.8299 63.4072 75.7737C66.6132 77.374 69.6425 78.3923 72.0715 78.3923C73.6416 78.3923 74.9626 77.9701 75.9206 77.0112C78.1143 74.8175 77.6904 70.5026 74.7124 64.5262C76.8076 60.6467 77.9996 56.2104 77.9996 51.5ZM26.2433 27.3338C27.6946 25.8824 31.0823 26.2746 35.6438 28.3761C32.2994 30.5318 29.4527 33.3908 27.3112 36.745C25.1831 32.0946 24.854 28.7228 26.2433 27.3338ZM50.5 77.2256C36.3144 77.2256 24.7742 65.6854 24.7742 51.4998C24.7742 47.5656 25.6648 43.837 27.2501 40.4998C29.6337 44.7651 32.9691 49.3503 36.5877 53.5552L33.4714 54.1788L33.82 55.9183L38.7266 54.9373L40.679 50.0557L39.0317 49.3965L37.8668 52.3088C33.4988 47.2357 30.2955 42.5598 28.2401 38.6299C32.6959 30.9522 41.0017 25.7742 50.5 25.7742C64.6855 25.7742 76.2258 37.3144 76.2258 51.5C76.2258 60.9981 71.0478 69.3039 63.3708 73.7598C60.5081 72.2552 57.3208 70.2015 53.9942 67.6513L52.9146 69.0591C55.6549 71.1606 58.6062 73.154 61.4831 74.7577C58.1503 76.3377 54.4269 77.2256 50.5 77.2256ZM74.666 75.7567C73.1801 77.2427 69.7311 76.7608 65.2487 74.6922C68.6056 72.5499 71.4664 69.7014 73.6239 66.3562C75.7253 70.9167 76.1174 74.3054 74.666 75.7567Z" fill="#333333"/>
<path d="M59.371 57.7096C59.371 53.7965 56.1873 50.6128 52.2742 50.6128H48.7258C45.7904 50.6128 43.4033 48.2257 43.4033 45.2903C43.4033 42.3549 45.7904 39.9677 48.7258 39.9677H52.2742C55.2096 39.9677 57.5968 42.3549 57.5968 45.2903V46.1775H59.371V45.2903C59.371 41.3772 56.1873 38.1935 52.2742 38.1935H51.387V34.6451H49.6128V38.1935H48.7257C44.8126 38.1935 41.6289 41.3772 41.6289 45.2903C41.6289 49.2033 44.8126 52.387 48.7257 52.387H52.274C55.2094 52.387 57.5966 54.7742 57.5966 57.7096C57.5966 60.645 55.2094 63.0321 52.274 63.0321H48.7257C45.7903 63.0321 43.4031 60.645 43.4031 57.7096V56.8224H41.6289V57.7096C41.6289 61.6226 44.8126 64.8063 48.7257 64.8063H49.6128V68.3547H51.387V64.8063H52.2742C56.1871 64.8063 59.371 61.6226 59.371 57.7096Z" fill="#333333"/>
</g>
<defs>
<clipPath id="clip0_340_183">
<rect width="55" height="55" fill="white" transform="translate(23 24)"/>
</clipPath>
</defs>
</svg>
