<svg width="66" height="66" viewBox="0 0 66 66" fill="none" xmlns="http://www.w3.org/2000/svg">
<path d="M60 33C60 47.9117 47.9117 60 33 60C18.0883 60 6 47.9117 6 33C6 18.0883 18.0883 6 33 6C47.9117 6 60 18.0883 60 33Z" fill="white" stroke="black"/>
<path d="M26.5329 39.7235C24.0768 39.6779 21.9617 38.2191 20.9737 36.1258C21.1387 36.1374 21.3054 36.1433 21.4739 36.1433C22.1362 36.1433 22.7786 36.0535 23.3878 35.8883L23.3557 34.9156C20.7214 34.3848 18.6819 32.2018 18.3684 29.494C19.1468 29.8117 19.9924 29.9994 20.8784 30.0275L22.6257 30.0828L21.1719 29.1119C19.4873 27.9868 18.3826 26.0678 18.3826 23.8928C18.3826 23.0007 18.5683 22.1533 18.9034 21.3861C22.3171 25.2605 27.2248 27.7872 32.7286 28.0626L33.391 28.0958L33.2406 27.4499C33.1337 26.991 33.0776 26.512 33.0776 26.0201C33.0776 22.5576 35.8852 19.75 39.3477 19.75C41.1499 19.75 42.7806 20.5117 43.9252 21.7305L44.1149 21.9325L44.3867 21.8788C45.4902 21.6606 46.5493 21.315 47.5455 20.8566C47.012 21.7612 46.2564 22.5207 45.3547 23.0614L45.6712 23.9867C46.4892 23.8888 47.2857 23.7222 48.0548 23.4916C47.3927 24.2509 46.6447 24.9349 45.8271 25.5257L45.6072 25.6847L45.6206 25.9557C45.6344 26.2348 45.6398 26.5188 45.6398 26.8065C45.6398 35.5372 38.9965 45.5684 26.8778 45.5684C23.8853 45.5684 21.06 44.863 18.551 43.6151C21.6707 43.5207 24.537 42.415 26.832 40.617L27.9391 39.7496L26.5329 39.7235Z" fill="white" stroke="black"/>
</svg>
