<svg width="34" height="33" viewBox="0 0 34 33" fill="none" xmlns="http://www.w3.org/2000/svg">
<path d="M17.1349 30.25C24.7329 30.25 30.8923 24.0939 30.8923 16.5C30.8923 8.90608 24.7329 2.75 17.1349 2.75C9.53685 2.75 3.37744 8.90608 3.37744 16.5C3.37744 24.0939 9.53685 30.25 17.1349 30.25Z" fill="#1DA1F2"/>
<path fill-rule="evenodd" clip-rule="evenodd" d="M25.3893 11.2122C24.7824 11.4817 24.1292 11.6632 23.4441 11.7451C24.1435 11.326 24.6806 10.6628 24.9331 9.8725C24.2794 10.2607 23.5536 10.5418 22.7827 10.6941C22.1647 10.0364 21.2838 9.625 20.3104 9.625C18.4401 9.625 16.9235 11.1407 16.9235 13.01C16.9235 13.2751 16.9538 13.5336 17.0116 13.7816C14.1964 13.6408 11.701 12.2928 10.0304 10.2448C9.73876 10.7447 9.57203 11.326 9.57203 11.9464C9.57203 13.1206 10.1691 14.1567 11.0787 14.7639C10.5229 14.7463 10.0013 14.5939 9.54396 14.3404V14.3827C9.54396 16.0233 10.7122 17.391 12.2606 17.7029C11.9767 17.7799 11.6773 17.8217 11.3687 17.8217C11.1502 17.8217 10.9378 17.8002 10.7309 17.7606C11.1618 19.1053 12.4131 20.0842 13.8949 20.1117C12.736 21.0191 11.2757 21.5608 9.68869 21.5608C9.41464 21.5608 9.14506 21.5449 8.88037 21.513C10.3793 22.4733 12.1594 23.0342 14.0721 23.0342C20.3016 23.0342 23.7083 17.8761 23.7083 13.4032C23.7083 13.2564 23.7055 13.1101 23.6983 12.9655C24.3608 12.487 24.9353 11.8909 25.3893 11.2122Z" fill="white"/>
</svg>
