<svg width="59" height="57" viewBox="0 0 59 57" fill="none" xmlns="http://www.w3.org/2000/svg">
<ellipse cx="29.5" cy="28.5" rx="29.5" ry="28.5" fill="#F8F8F8"/>
<path fill-rule="evenodd" clip-rule="evenodd" d="M20.0938 20.8333C20.0938 16.0008 24.3051 12.0833 29.5 12.0833C34.6949 12.0833 38.9062 16.0008 38.9062 20.8333C38.9062 25.6658 34.6949 29.5833 29.5 29.5833C24.3051 29.5833 20.0938 25.6658 20.0938 20.8333Z" fill="black"/>
<path fill-rule="evenodd" clip-rule="evenodd" d="M15.6147 40.9523C15.6147 36.0541 19.8834 32.0833 25.149 32.0833H33.8514C39.1169 32.0833 43.3856 36.0541 43.3856 40.9523C43.3856 44.7986 40.0337 47.9166 35.8989 47.9166H23.1013C18.9666 47.9166 15.6147 44.7986 15.6147 40.9523Z" fill="#BFBFBF"/>
</svg>
