<svg width="51" height="47" viewBox="0 0 51 47" fill="none" xmlns="http://www.w3.org/2000/svg">
<path d="M14.8142 0.666504C7.14124 0.666504 0.918945 6.3262 0.918945 13.3054V33.5276C0.918945 40.5068 7.14124 46.1665 14.8142 46.1665H37.0466C44.7196 46.1665 50.9419 40.5068 50.9419 33.5276V13.3054C50.9419 6.3262 44.7196 0.666504 37.0466 0.666504H14.8142ZM42.6047 5.72206C44.1388 5.72206 45.3838 6.8545 45.3838 8.24984C45.3838 9.64517 44.1388 10.7776 42.6047 10.7776C41.0707 10.7776 39.8257 9.64517 39.8257 8.24984C39.8257 6.8545 41.0707 5.72206 42.6047 5.72206ZM25.9304 10.7776C33.6034 10.7776 39.8257 16.4373 39.8257 23.4165C39.8257 30.3957 33.6034 36.0554 25.9304 36.0554C18.2575 36.0554 12.0352 30.3957 12.0352 23.4165C12.0352 16.4373 18.2575 10.7776 25.9304 10.7776ZM25.9304 15.8332C23.7193 15.8332 21.5987 16.6321 20.0352 18.0543C18.4716 19.4764 17.5933 21.4053 17.5933 23.4165C17.5933 25.4277 18.4716 27.3566 20.0352 28.7787C21.5987 30.2009 23.7193 30.9998 25.9304 30.9998C28.1416 30.9998 30.2622 30.2009 31.8257 28.7787C33.3892 27.3566 34.2676 25.4277 34.2676 23.4165C34.2676 21.4053 33.3892 19.4764 31.8257 18.0543C30.2622 16.6321 28.1416 15.8332 25.9304 15.8332Z" fill="white"/>
</svg>
