<svg width="76" height="76" viewBox="0 0 76 76" fill="none" xmlns="http://www.w3.org/2000/svg">
<ellipse cx="37.9701" cy="38" rx="37.9701" ry="38" fill="#88AC6B"/>
<ellipse cx="37.9702" cy="38" rx="35.2187" ry="34.7194" fill="#E7F0E0"/>
<path d="M12.6162 46.0576L16.3867 35.2031H18.2236L13.4863 48H12.1768L12.6162 46.0576ZM9.0918 35.2031L12.8271 46.0576L13.293 48H11.9834L7.25488 35.2031H9.0918ZM24.9033 46.374V41.4785C24.9033 41.1035 24.8271 40.7783 24.6748 40.5029C24.5283 40.2217 24.3057 40.0049 24.0068 39.8525C23.708 39.7002 23.3389 39.624 22.8994 39.624C22.4893 39.624 22.1289 39.6943 21.8184 39.835C21.5137 39.9756 21.2734 40.1602 21.0977 40.3887C20.9277 40.6172 20.8428 40.8633 20.8428 41.127H19.2168C19.2168 40.7871 19.3047 40.4502 19.4805 40.1162C19.6562 39.7822 19.9082 39.4805 20.2363 39.2109C20.5703 38.9355 20.9688 38.7188 21.4316 38.5605C21.9004 38.3965 22.4219 38.3145 22.9961 38.3145C23.6875 38.3145 24.2969 38.4316 24.8242 38.666C25.3574 38.9004 25.7734 39.2549 26.0723 39.7295C26.377 40.1982 26.5293 40.7871 26.5293 41.4961V45.9258C26.5293 46.2422 26.5557 46.5791 26.6084 46.9365C26.667 47.2939 26.752 47.6016 26.8633 47.8594V48H25.167C25.085 47.8125 25.0205 47.5635 24.9736 47.2529C24.9268 46.9365 24.9033 46.6436 24.9033 46.374ZM25.1846 42.2344L25.2021 43.377H23.5586C23.0957 43.377 22.6826 43.415 22.3193 43.4912C21.9561 43.5615 21.6514 43.6699 21.4053 43.8164C21.1592 43.9629 20.9717 44.1475 20.8428 44.3701C20.7139 44.5869 20.6494 44.8418 20.6494 45.1348C20.6494 45.4336 20.7168 45.7061 20.8516 45.9521C20.9863 46.1982 21.1885 46.3945 21.458 46.541C21.7334 46.6816 22.0703 46.752 22.4688 46.752C22.9668 46.752 23.4062 46.6465 23.7871 46.4355C24.168 46.2246 24.4697 45.9668 24.6924 45.6621C24.9209 45.3574 25.0439 45.0615 25.0615 44.7744L25.7559 45.5566C25.7148 45.8027 25.6035 46.0752 25.4219 46.374C25.2402 46.6729 24.9971 46.96 24.6924 47.2354C24.3936 47.5049 24.0361 47.7305 23.6201 47.9121C23.21 48.0879 22.7471 48.1758 22.2314 48.1758C21.5869 48.1758 21.0215 48.0498 20.5352 47.7979C20.0547 47.5459 19.6797 47.209 19.4102 46.7871C19.1465 46.3594 19.0146 45.8818 19.0146 45.3545C19.0146 44.8447 19.1143 44.3965 19.3135 44.0098C19.5127 43.6172 19.7998 43.292 20.1748 43.0342C20.5498 42.7705 21.001 42.5713 21.5283 42.4365C22.0557 42.3018 22.6445 42.2344 23.2949 42.2344H25.1846ZM30.8535 34.5V48H29.2188V34.5H30.8535ZM35.0811 40.3799V48H33.4463V38.4902H34.9932L35.0811 40.3799ZM34.7471 42.8848L33.9912 42.8584C33.9971 42.208 34.082 41.6074 34.2461 41.0566C34.4102 40.5 34.6533 40.0166 34.9756 39.6064C35.2979 39.1963 35.6992 38.8799 36.1797 38.6572C36.6602 38.4287 37.2168 38.3145 37.8496 38.3145C38.2949 38.3145 38.7051 38.3789 39.0801 38.5078C39.4551 38.6309 39.7803 38.8271 40.0557 39.0967C40.3311 39.3662 40.5449 39.7119 40.6973 40.1338C40.8496 40.5557 40.9258 41.0654 40.9258 41.6631V48H39.2998V41.7422C39.2998 41.2441 39.2148 40.8457 39.0449 40.5469C38.8809 40.248 38.6465 40.0312 38.3418 39.8965C38.0371 39.7559 37.6797 39.6855 37.2695 39.6855C36.7891 39.6855 36.3877 39.7705 36.0654 39.9404C35.7432 40.1104 35.4854 40.3447 35.292 40.6436C35.0986 40.9424 34.958 41.2852 34.8701 41.6719C34.7881 42.0527 34.7471 42.457 34.7471 42.8848ZM40.9082 41.9883L39.8184 42.3223C39.8242 41.8008 39.9092 41.2998 40.0732 40.8193C40.2432 40.3389 40.4863 39.9111 40.8027 39.5361C41.125 39.1611 41.5205 38.8652 41.9893 38.6484C42.458 38.4258 42.9941 38.3145 43.5977 38.3145C44.1074 38.3145 44.5586 38.3818 44.9512 38.5166C45.3496 38.6514 45.6836 38.8594 45.9531 39.1406C46.2285 39.416 46.4365 39.7705 46.5771 40.2041C46.7178 40.6377 46.7881 41.1533 46.7881 41.751V48H45.1533V41.7334C45.1533 41.2002 45.0684 40.7871 44.8984 40.4941C44.7344 40.1953 44.5 39.9873 44.1953 39.8701C43.8965 39.7471 43.5391 39.6855 43.123 39.6855C42.7656 39.6855 42.4492 39.7471 42.1738 39.8701C41.8984 39.9932 41.667 40.1631 41.4795 40.3799C41.292 40.5908 41.1484 40.834 41.0488 41.1094C40.9551 41.3848 40.9082 41.6777 40.9082 41.9883ZM54.8564 46.374V41.4785C54.8564 41.1035 54.7803 40.7783 54.6279 40.5029C54.4814 40.2217 54.2588 40.0049 53.96 39.8525C53.6611 39.7002 53.292 39.624 52.8525 39.624C52.4424 39.624 52.082 39.6943 51.7715 39.835C51.4668 39.9756 51.2266 40.1602 51.0508 40.3887C50.8809 40.6172 50.7959 40.8633 50.7959 41.127H49.1699C49.1699 40.7871 49.2578 40.4502 49.4336 40.1162C49.6094 39.7822 49.8613 39.4805 50.1895 39.2109C50.5234 38.9355 50.9219 38.7188 51.3848 38.5605C51.8535 38.3965 52.375 38.3145 52.9492 38.3145C53.6406 38.3145 54.25 38.4316 54.7773 38.666C55.3105 38.9004 55.7266 39.2549 56.0254 39.7295C56.3301 40.1982 56.4824 40.7871 56.4824 41.4961V45.9258C56.4824 46.2422 56.5088 46.5791 56.5615 46.9365C56.6201 47.2939 56.7051 47.6016 56.8164 47.8594V48H55.1201C55.0381 47.8125 54.9736 47.5635 54.9268 47.2529C54.8799 46.9365 54.8564 46.6436 54.8564 46.374ZM55.1377 42.2344L55.1553 43.377H53.5117C53.0488 43.377 52.6357 43.415 52.2725 43.4912C51.9092 43.5615 51.6045 43.6699 51.3584 43.8164C51.1123 43.9629 50.9248 44.1475 50.7959 44.3701C50.667 44.5869 50.6025 44.8418 50.6025 45.1348C50.6025 45.4336 50.6699 45.7061 50.8047 45.9521C50.9395 46.1982 51.1416 46.3945 51.4111 46.541C51.6865 46.6816 52.0234 46.752 52.4219 46.752C52.9199 46.752 53.3594 46.6465 53.7402 46.4355C54.1211 46.2246 54.4229 45.9668 54.6455 45.6621C54.874 45.3574 54.9971 45.0615 55.0146 44.7744L55.709 45.5566C55.668 45.8027 55.5566 46.0752 55.375 46.374C55.1934 46.6729 54.9502 46.96 54.6455 47.2354C54.3467 47.5049 53.9893 47.7305 53.5732 47.9121C53.1631 48.0879 52.7002 48.1758 52.1846 48.1758C51.54 48.1758 50.9746 48.0498 50.4883 47.7979C50.0078 47.5459 49.6328 47.209 49.3633 46.7871C49.0996 46.3594 48.9678 45.8818 48.9678 45.3545C48.9678 44.8447 49.0674 44.3965 49.2666 44.0098C49.4658 43.6172 49.7529 43.292 50.1279 43.0342C50.5029 42.7705 50.9541 42.5713 51.4814 42.4365C52.0088 42.3018 52.5977 42.2344 53.248 42.2344H55.1377ZM60.666 39.9844V48H59.04V38.4902H60.6221L60.666 39.9844ZM63.6367 38.4375L63.6279 39.9492C63.4932 39.9199 63.3643 39.9023 63.2412 39.8965C63.124 39.8848 62.9893 39.8789 62.8369 39.8789C62.4619 39.8789 62.1309 39.9375 61.8438 40.0547C61.5566 40.1719 61.3135 40.3359 61.1143 40.5469C60.915 40.7578 60.7568 41.0098 60.6396 41.3027C60.5283 41.5898 60.4551 41.9062 60.4199 42.252L59.9629 42.5156C59.9629 41.9414 60.0186 41.4023 60.1299 40.8984C60.2471 40.3945 60.4258 39.9492 60.666 39.5625C60.9062 39.1699 61.2109 38.8652 61.5801 38.6484C61.9551 38.4258 62.4004 38.3145 62.916 38.3145C63.0332 38.3145 63.168 38.3291 63.3203 38.3584C63.4727 38.3818 63.5781 38.4082 63.6367 38.4375ZM66.9062 38.4902V48H65.2715V38.4902H66.9062ZM65.1484 35.9678C65.1484 35.7041 65.2275 35.4814 65.3857 35.2998C65.5498 35.1182 65.79 35.0273 66.1064 35.0273C66.417 35.0273 66.6543 35.1182 66.8184 35.2998C66.9883 35.4814 67.0732 35.7041 67.0732 35.9678C67.0732 36.2197 66.9883 36.4365 66.8184 36.6182C66.6543 36.7939 66.417 36.8818 66.1064 36.8818C65.79 36.8818 65.5498 36.7939 65.3857 36.6182C65.2275 36.4365 65.1484 36.2197 65.1484 35.9678Z" fill="#424242"/>
<path d="M29.1005 13.3917L21.1616 11.282L29.1005 11.8094L33.5462 10.7546L37.992 13.9192L41.485 12.0732L45.2957 12.3369L51.9643 9.69971L51.0116 12.3369H54.1872L42.1201 19.4572L42.7553 23.4129L47.201 28.6873L43.3904 27.3687L44.6606 31.5881L33.2287 16.5563V14.974L29.1005 13.3917Z" fill="#55A630"/>
</svg>
