<svg width="38" height="38" viewBox="0 0 38 38" fill="none" xmlns="http://www.w3.org/2000/svg">
<path d="M24.9832 18.7111H29.0831C29.0831 12.973 24.4912 8.31604 18.8335 8.31604V12.4741C22.2363 12.4741 24.9832 15.2599 24.9832 18.7111ZM33.1829 18.7111H37.2827C37.2827 8.37841 29.0216 0 18.8335 0V4.15802C26.7667 4.15802 33.1829 10.6653 33.1829 18.7111ZM35.2328 25.9876C32.6704 25.9876 30.2105 25.5718 27.9146 24.8026C27.7096 24.7402 27.4841 24.6986 27.2791 24.6986C26.7462 24.6986 26.2337 24.9065 25.8237 25.3015L21.3139 29.8754C15.5126 26.8816 10.7568 22.0791 7.80496 16.1747L12.3148 11.5801C12.8887 11.0395 13.0527 10.2287 12.8272 9.50107C12.0688 7.17258 11.6588 4.67777 11.6588 2.07901C11.6588 0.935554 10.7363 0 9.60888 0H2.43419C1.30674 0 0.384277 0.935554 0.384277 2.07901C0.384277 21.6009 15.9841 37.4222 35.2328 37.4222C36.3602 37.4222 37.2827 36.4866 37.2827 35.3432V28.0666C37.2827 26.9232 36.3602 25.9876 35.2328 25.9876ZM4.5456 4.15802H7.62047C7.76396 5.98755 8.07145 7.79628 8.54293 9.52186L6.08303 12.0375C5.26307 9.52186 4.73009 6.90231 4.5456 4.15802ZM33.1829 33.2018C30.477 33.0147 27.8531 32.4741 25.3932 31.6217L27.8531 29.1269C29.5955 29.6259 31.379 29.9377 33.1829 30.0625V33.2018Z" fill="#2A2A2A"/>
</svg>
