<svg width="51" height="47" viewBox="0 0 51 47" fill="none" xmlns="http://www.w3.org/2000/svg">
<path d="M45.3379 0.666504H6.43115C3.3603 0.666504 0.873047 2.92886 0.873047 5.72206V41.1109C0.873047 43.9041 3.3603 46.1665 6.43115 46.1665H27.6103V28.5706H21.099V21.6824H27.6103V16.6143C27.6103 10.7397 31.5593 7.537 37.3231 7.537C39.2657 7.53195 41.2054 7.62295 43.1369 7.80242V13.9449H39.1684C36.0281 13.9449 35.4167 15.2948 35.4167 17.2866V21.6723H42.9201L41.9447 28.5605H35.3722V46.1665H45.3379C48.4087 46.1665 50.896 43.9041 50.896 41.1109V5.72206C50.896 2.92886 48.4087 0.666504 45.3379 0.666504Z" fill="white"/>
</svg>
