<svg width="249" height="57" viewBox="0 0 249 57" fill="none" xmlns="http://www.w3.org/2000/svg">
<path d="M113.062 11.9922H116.5L110.621 40H105.875L100.387 11.9922H103.902L108.316 36.4844L113.062 11.9922ZM127.066 11.9922L133.707 40H130.133L128.629 32.9297H120.816L119.254 40H115.699L122.457 11.9922H127.066ZM121.461 29.9219H127.984L124.703 14.6484L121.461 29.9219ZM150.504 36.9531V40H138.102V11.9922H141.578V36.9531H150.504ZM172.906 11.9922V40H169.586V14.8828L165.309 30.6055H161.988L157.711 14.8828V40H154.508V11.9922H160.152L163.785 26.3281L167.379 11.9922H172.906ZM188.668 11.9922L195.309 40H191.734L190.23 32.9297H182.418L180.855 40H177.301L184.059 11.9922H188.668ZM183.062 29.9219H189.586L186.305 14.6484L183.062 29.9219ZM214.215 19.8828C214.215 21.9661 213.909 23.6719 213.297 25C212.685 26.3281 211.663 27.2721 210.23 27.832L215.699 40H211.871L206.734 28.3984H203.18V40H199.703V11.9922C200.042 11.9661 200.387 11.9401 200.738 11.9141C201.09 11.888 201.454 11.862 201.832 11.8359C202.47 11.7839 203.193 11.7513 204 11.7383C204.82 11.7253 205.641 11.7188 206.461 11.7188C207.984 11.7188 209.241 11.9076 210.23 12.2852C211.233 12.6628 212.034 13.2161 212.633 13.9453C213.219 14.6615 213.629 15.5273 213.863 16.543C214.098 17.5456 214.215 18.6589 214.215 19.8828ZM210.66 20.1562C210.66 18.2161 210.393 16.8099 209.859 15.9375C209.326 15.0521 208.355 14.6094 206.949 14.6094C205.829 14.6094 204.918 14.6484 204.215 14.7266C203.824 14.7786 203.479 14.8177 203.18 14.8438V25.4883H206.949C207.509 25.4883 208.01 25.4167 208.453 25.2734C208.909 25.1172 209.306 24.8438 209.645 24.4531C210.322 23.6979 210.66 22.2656 210.66 20.1562ZM227.77 37.0703V40H218.688V37.0703H221.48V14.9219H218.688V11.9922H227.77V14.9219H224.977V37.0703H227.77Z" fill="black"/>
<path d="M20.6731 9.61446L0 4.12048L20.6731 5.49398L32.25 2.74699L43.8269 10.988L52.9231 6.18072L62.8462 6.86747L80.2115 0L77.7308 6.86747H86L54.5769 25.4096L56.2308 35.7108L67.8077 49.4458L57.8846 46.012L61.1923 57L31.4231 17.8554V13.7349L20.6731 9.61446Z" fill="#55A630"/>
</svg>
