<svg width="60" height="58" viewBox="0 0 60 58" fill="none" xmlns="http://www.w3.org/2000/svg">
<ellipse cx="30" cy="29" rx="30" ry="29" fill="#88AC6B"/>
<ellipse cx="29.9999" cy="29" rx="27.8261" ry="26.4964" fill="#E7F0E0"/>
<path d="M11.9531 38.12L14.8857 29.6776H16.3145L12.6299 39.6308H11.6113L11.9531 38.12ZM9.21191 29.6776L12.1172 38.12L12.4795 39.6308H11.4609L7.7832 29.6776H9.21191ZM21.5098 38.3661V34.5585C21.5098 34.2668 21.4505 34.0139 21.332 33.7997C21.2181 33.581 21.0449 33.4123 20.8125 33.2939C20.5801 33.1754 20.293 33.1161 19.9512 33.1161C19.6322 33.1161 19.3519 33.1708 19.1104 33.2802C18.8734 33.3896 18.6865 33.5331 18.5498 33.7108C18.4176 33.8886 18.3516 34.08 18.3516 34.2851H17.0869C17.0869 34.0207 17.1553 33.7587 17.292 33.4989C17.4287 33.2392 17.6247 33.0045 17.8799 32.7948C18.1396 32.5806 18.4495 32.412 18.8096 32.289C19.1742 32.1614 19.5798 32.0976 20.0264 32.0976C20.5641 32.0976 21.0381 32.1887 21.4482 32.371C21.863 32.5533 22.1865 32.829 22.4189 33.1982C22.6559 33.5627 22.7744 34.0207 22.7744 34.5722V38.0175C22.7744 38.2636 22.7949 38.5256 22.8359 38.8036C22.8815 39.0816 22.9476 39.3209 23.0342 39.5214V39.6308H21.7148C21.651 39.4849 21.6009 39.2912 21.5645 39.0497C21.528 38.8036 21.5098 38.5758 21.5098 38.3661ZM21.7285 35.1464L21.7422 36.0351H20.4639C20.1038 36.0351 19.7826 36.0647 19.5 36.1239C19.2174 36.1786 18.9805 36.2629 18.7891 36.3769C18.5977 36.4908 18.4518 36.6343 18.3516 36.8075C18.2513 36.9761 18.2012 37.1744 18.2012 37.4023C18.2012 37.6347 18.2536 37.8466 18.3584 38.038C18.4632 38.2294 18.6204 38.3821 18.8301 38.496C19.0443 38.6054 19.3063 38.6601 19.6162 38.6601C20.0036 38.6601 20.3454 38.578 20.6416 38.414C20.9378 38.2499 21.1725 38.0494 21.3457 37.8124C21.5234 37.5754 21.6191 37.3453 21.6328 37.122L22.1729 37.7304C22.141 37.9218 22.0544 38.1337 21.9131 38.3661C21.7718 38.5985 21.5827 38.8218 21.3457 39.036C21.1133 39.2457 20.8353 39.4211 20.5117 39.5624C20.1927 39.6991 19.8327 39.7675 19.4316 39.7675C18.9303 39.7675 18.4906 39.6695 18.1123 39.4735C17.7386 39.2776 17.4469 39.0155 17.2373 38.6874C17.0322 38.3547 16.9297 37.9833 16.9297 37.5732C16.9297 37.1767 17.0072 36.828 17.1621 36.5273C17.3171 36.2219 17.5404 35.969 17.832 35.7685C18.1237 35.5634 18.4746 35.4084 18.8848 35.3036C19.2949 35.1988 19.7529 35.1464 20.2588 35.1464H21.7285ZM26.1377 29.1308V39.6308H24.8662V29.1308H26.1377ZM29.4258 33.704V39.6308H28.1543V32.2343H29.3574L29.4258 33.704ZM29.166 35.6523L28.5781 35.6317C28.5827 35.1259 28.6488 34.6588 28.7764 34.2304C28.904 33.7974 29.0931 33.4215 29.3438 33.1024C29.5944 32.7834 29.9066 32.5373 30.2803 32.3642C30.654 32.1864 31.0869 32.0976 31.5791 32.0976C31.9255 32.0976 32.2445 32.1477 32.5361 32.248C32.8278 32.3437 33.0807 32.4963 33.2949 32.706C33.5091 32.9156 33.6755 33.1845 33.7939 33.5126C33.9124 33.8407 33.9717 34.2372 33.9717 34.7021V39.6308H32.707V34.7636C32.707 34.3762 32.641 34.0663 32.5088 33.8339C32.3812 33.6015 32.1989 33.4329 31.9619 33.328C31.7249 33.2187 31.4469 33.164 31.1279 33.164C30.7542 33.164 30.4421 33.2301 30.1914 33.3622C29.9408 33.4944 29.7402 33.6767 29.5898 33.9091C29.4395 34.1415 29.3301 34.4081 29.2617 34.7089C29.1979 35.0051 29.166 35.3196 29.166 35.6523ZM33.958 34.955L33.1104 35.2148C33.1149 34.8092 33.181 34.4195 33.3086 34.0458C33.4408 33.6721 33.6299 33.3394 33.876 33.0478C34.1266 32.7561 34.4342 32.526 34.7988 32.3573C35.1634 32.1842 35.5804 32.0976 36.0498 32.0976C36.4463 32.0976 36.7972 32.15 37.1025 32.2548C37.4124 32.3596 37.6722 32.5214 37.8818 32.7401C38.096 32.9543 38.2578 33.2301 38.3672 33.5673C38.4766 33.9045 38.5312 34.3056 38.5312 34.7704V39.6308H37.2598V34.7567C37.2598 34.342 37.1937 34.0207 37.0615 33.7929C36.9339 33.5605 36.7516 33.3987 36.5146 33.3075C36.2822 33.2118 36.0042 33.164 35.6807 33.164C35.4027 33.164 35.1566 33.2118 34.9424 33.3075C34.7282 33.4032 34.5482 33.5354 34.4023 33.704C34.2565 33.8681 34.1449 34.0572 34.0674 34.2714C33.9945 34.4856 33.958 34.7135 33.958 34.955ZM44.8066 38.3661V34.5585C44.8066 34.2668 44.7474 34.0139 44.6289 33.7997C44.515 33.581 44.3418 33.4123 44.1094 33.2939C43.877 33.1754 43.5898 33.1161 43.248 33.1161C42.929 33.1161 42.6488 33.1708 42.4072 33.2802C42.1702 33.3896 41.9834 33.5331 41.8467 33.7108C41.7145 33.8886 41.6484 34.08 41.6484 34.2851H40.3838C40.3838 34.0207 40.4521 33.7587 40.5889 33.4989C40.7256 33.2392 40.9215 33.0045 41.1768 32.7948C41.4365 32.5806 41.7464 32.412 42.1064 32.289C42.471 32.1614 42.8766 32.0976 43.3232 32.0976C43.861 32.0976 44.335 32.1887 44.7451 32.371C45.1598 32.5533 45.4834 32.829 45.7158 33.1982C45.9528 33.5627 46.0713 34.0207 46.0713 34.5722V38.0175C46.0713 38.2636 46.0918 38.5256 46.1328 38.8036C46.1784 39.0816 46.2445 39.3209 46.3311 39.5214V39.6308H45.0117C44.9479 39.4849 44.8978 39.2912 44.8613 39.0497C44.8249 38.8036 44.8066 38.5758 44.8066 38.3661ZM45.0254 35.1464L45.0391 36.0351H43.7607C43.4007 36.0351 43.0794 36.0647 42.7969 36.1239C42.5143 36.1786 42.2773 36.2629 42.0859 36.3769C41.8945 36.4908 41.7487 36.6343 41.6484 36.8075C41.5482 36.9761 41.498 37.1744 41.498 37.4023C41.498 37.6347 41.5505 37.8466 41.6553 38.038C41.7601 38.2294 41.9173 38.3821 42.127 38.496C42.3411 38.6054 42.6032 38.6601 42.9131 38.6601C43.3005 38.6601 43.6423 38.578 43.9385 38.414C44.2347 38.2499 44.4694 38.0494 44.6426 37.8124C44.8203 37.5754 44.916 37.3453 44.9297 37.122L45.4697 37.7304C45.4378 37.9218 45.3512 38.1337 45.21 38.3661C45.0687 38.5985 44.8796 38.8218 44.6426 39.036C44.4102 39.2457 44.1322 39.4211 43.8086 39.5624C43.4896 39.6991 43.1296 39.7675 42.7285 39.7675C42.2272 39.7675 41.7874 39.6695 41.4092 39.4735C41.0355 39.2776 40.7438 39.0155 40.5342 38.6874C40.3291 38.3547 40.2266 37.9833 40.2266 37.5732C40.2266 37.1767 40.304 36.828 40.459 36.5273C40.6139 36.2219 40.8372 35.969 41.1289 35.7685C41.4206 35.5634 41.7715 35.4084 42.1816 35.3036C42.5918 35.1988 43.0498 35.1464 43.5557 35.1464H45.0254ZM49.3252 33.3964V39.6308H48.0605V32.2343H49.291L49.3252 33.3964ZM51.6357 32.1933L51.6289 33.369C51.5241 33.3463 51.4238 33.3326 51.3281 33.328C51.237 33.3189 51.1322 33.3144 51.0137 33.3144C50.722 33.3144 50.4645 33.3599 50.2412 33.4511C50.0179 33.5422 49.8288 33.6698 49.6738 33.8339C49.5189 33.998 49.3958 34.1939 49.3047 34.4218C49.2181 34.6451 49.1611 34.8912 49.1338 35.1601L48.7783 35.3651C48.7783 34.9185 48.8216 34.4993 48.9082 34.1073C48.9993 33.7154 49.1383 33.369 49.3252 33.0683C49.512 32.7629 49.749 32.526 50.0361 32.3573C50.3278 32.1842 50.6742 32.0976 51.0752 32.0976C51.1663 32.0976 51.2712 32.109 51.3896 32.1317C51.5081 32.15 51.5902 32.1705 51.6357 32.1933ZM54.1787 32.2343V39.6308H52.9072V32.2343H54.1787ZM52.8115 30.2724C52.8115 30.0673 52.873 29.8941 52.9961 29.7528C53.1237 29.6116 53.3105 29.5409 53.5566 29.5409C53.7982 29.5409 53.9827 29.6116 54.1104 29.7528C54.2425 29.8941 54.3086 30.0673 54.3086 30.2724C54.3086 30.4683 54.2425 30.637 54.1104 30.7782C53.9827 30.9149 53.7982 30.9833 53.5566 30.9833C53.3105 30.9833 53.1237 30.9149 52.9961 30.7782C52.873 30.637 52.8115 30.4683 52.8115 30.2724Z" fill="#424242"/>
<path d="M22.992 10.2201L16.7196 8.61001L22.992 9.01252L26.5046 8.20749L30.0172 10.6226L32.777 9.21378L35.7878 9.41504L41.0566 7.40247L40.3039 9.41504H42.8129L33.2788 14.849L33.7806 17.8678L37.2932 21.893L34.2824 20.8867L35.286 24.1068L26.2537 12.6351V11.4276L22.992 10.2201Z" fill="#55A630"/>
</svg>
