<svg width="21" height="22" viewBox="0 0 21 22" fill="none" xmlns="http://www.w3.org/2000/svg">
<g clip-path="url(#clip0_229_210)" filter="url(#filter0_d_229_210)">
<path fill-rule="evenodd" clip-rule="evenodd" d="M9.5625 2.5C7.31884 2.5 5.5 4.31884 5.5 6.5625C5.5 8.80619 7.31884 10.625 9.5625 10.625C11.8062 10.625 13.625 8.80619 13.625 6.5625C13.625 4.31884 11.8062 2.5 9.5625 2.5ZM4.25 6.5625C4.25 3.62849 6.62849 1.25 9.5625 1.25C12.4965 1.25 14.875 3.62849 14.875 6.5625C14.875 7.80431 14.4489 8.94656 13.735 9.85112L16.0177 12.1339C16.2618 12.3779 16.2618 12.7737 16.0177 13.0177C15.7737 13.2618 15.3779 13.2618 15.1339 13.0177L12.8511 10.735C11.9466 11.4489 10.8043 11.875 9.5625 11.875C6.62849 11.875 4.25 9.4965 4.25 6.5625ZM8.9375 4.375C8.9375 4.02982 9.21732 3.75 9.5625 3.75C11.1158 3.75 12.375 5.0092 12.375 6.5625C12.375 6.90769 12.0952 7.1875 11.75 7.1875C11.4048 7.1875 11.125 6.90769 11.125 6.5625C11.125 5.69956 10.4254 5 9.5625 5C9.21732 5 8.9375 4.72017 8.9375 4.375Z" fill="white"/>
</g>
<defs>
<filter id="filter0_d_229_210" x="-1" y="0" width="23" height="23" filterUnits="userSpaceOnUse" color-interpolation-filters="sRGB">
<feFlood flood-opacity="0" result="BackgroundImageFix"/>
<feColorMatrix in="SourceAlpha" type="matrix" values="0 0 0 0 0 0 0 0 0 0 0 0 0 0 0 0 0 0 127 0" result="hardAlpha"/>
<feOffset dy="4"/>
<feGaussianBlur stdDeviation="2"/>
<feComposite in2="hardAlpha" operator="out"/>
<feColorMatrix type="matrix" values="0 0 0 0 0 0 0 0 0 0 0 0 0 0 0 0 0 0 0.25 0"/>
<feBlend mode="normal" in2="BackgroundImageFix" result="effect1_dropShadow_229_210"/>
<feBlend mode="normal" in="SourceGraphic" in2="effect1_dropShadow_229_210" result="shape"/>
</filter>
<clipPath id="clip0_229_210">
<rect width="15" height="15" fill="white" transform="translate(3)"/>
</clipPath>
</defs>
</svg>
