<svg xmlns="http://www.w3.org/2000/svg"> 
<symbol id="logo-svg" viewBox="0 0 47 32">
<path d="M11.6193 5.67803L0.537964 2.73551L11.6193 3.47114L17.8248 1.99988L24.0303 6.41366L28.9061 3.83896L34.2251 4.20677L43.5334 0.528625L42.2036 4.20677H46.6361L29.7926 14.1378L30.6791 19.655L36.8846 27.0113L31.5656 25.1722L33.3386 31.0572L17.3815 10.0918V7.88492L11.6193 5.67803Z" fill="#55A630"/>
</symbol>
<symbol id="phone" viewBox="0 0 37 38">
<path d="M24.5857 18.7111H28.6833C28.6833 12.973 24.094 8.31604 18.4393 8.31604V12.4741C21.8403 12.4741 24.5857 15.2599 24.5857 18.7111ZM32.7809 18.7111H36.8785C36.8785 8.37841 28.6218 0 18.4393 0V4.15802C26.3682 4.15802 32.7809 10.6653 32.7809 18.7111ZM34.8297 25.9876C32.2687 25.9876 29.8102 25.5718 27.5155 24.8026C27.3106 24.7402 27.0852 24.6986 26.8804 24.6986C26.3477 24.6986 25.8355 24.9065 25.4257 25.3015L20.9183 29.8754C15.1202 26.8816 10.367 22.0791 7.41668 16.1747L11.9241 11.5801C12.4977 11.0395 12.6616 10.2287 12.4363 9.50107C11.6782 7.17258 11.2684 4.67777 11.2684 2.07901C11.2684 0.935554 10.3465 0 9.21963 0H2.04881C0.921963 0 0 0.935554 0 2.07901C0 21.6009 15.5914 37.4222 34.8297 37.4222C35.9566 37.4222 36.8785 36.4866 36.8785 35.3432V28.0666C36.8785 26.9232 35.9566 25.9876 34.8297 25.9876ZM4.15908 4.15802H7.23229C7.37571 5.98755 7.68303 7.79628 8.15425 9.52186L5.69569 12.0375C4.87616 9.52186 4.34347 6.90231 4.15908 4.15802ZM32.7809 33.2018C30.0765 33.0147 27.454 32.4741 24.9955 31.6217L27.454 29.1269C29.1955 29.6259 30.978 29.9377 32.7809 30.0625V33.2018Z" fill="#2A2A2A"/>
</symbol>
<symbol id="arrow-down" viewBox="0 0 31 18">
<path d="M27.1663 0.118042L15.8031 11.0744L4.43987 0.118042L0.949219 3.49106L15.8031 17.8443L30.6569 3.49106L27.1663 0.118042Z" fill="#424242"/>
</symbol>
<symbol viewBox="0 0 15 23" id="arrow-left">
<path d="M1.22472 9.80764C0.565146 10.3664 0.533047 11.3013 1.15303 11.8957L11.2562 21.5828C11.8762 22.1772 12.9135 22.2062 13.5731 21.6474C14.2327 21.0885 14.2648 20.1538 13.6448 19.5594L4.66416 10.9486L14.2183 2.8548C14.8779 2.29604 14.91 1.36119 14.29 0.766735C13.67 0.172296 12.6328 0.143367 11.9732 0.702123L1.22472 9.80764ZM2.29661 12.3605L5.5747 12.4519L2.92864 11.8957L2.398 9.4075L2.29661 12.3605Z" fill="#424242"/>
</symbol>
<symbol viewBox="0 0 15 23" id="arrow-right">
<path d="M13.9721 10.5034C14.6316 11.0622 14.6637 11.9971 14.0437 12.5915L3.94054 22.2786C3.32055 22.873 2.28327 22.902 1.62368 22.3432C0.964112 21.7843 0.932003 20.8496 1.55199 20.2552L10.5326 11.6444L0.978437 3.5506C0.318852 2.99184 0.286758 2.05699 0.906744 1.46254C1.52673 0.868097 2.56402 0.839167 3.22359 1.39792L13.9721 10.5034ZM12.9002 13.0563L9.62208 13.1477L12.2681 12.5915L12.7988 10.1033L12.9002 13.0563Z" fill="#424242"/>
</symbol>
<symbol viewBox="0 0 138 15" id="dots">
<circle cx="7.5" cy="7.5" r="7.5" fill="#55A630"/>
<circle cx="36.5" cy="7.5" r="7.5" fill="#B7ECB1"/>
<circle cx="70.5" cy="7.5" r="7.5" fill="#B7ECB1"/>
<circle cx="100.5" cy="7.5" r="7.5" fill="#B7ECB1"/>
<circle cx="130.5" cy="7.5" r="7.5" fill="#B7ECB1"/>
</symbol>
<symbol viewBox="0 0 59 8" id="arrow">
<path d="M58.3536 4.35355C58.5488 4.15829 58.5488 3.84171 58.3536 3.64645L55.1716 0.464466C54.9763 0.269204 54.6597 0.269204 54.4645 0.464466C54.2692 0.659728 54.2692 0.976311 54.4645 1.17157L57.2929 4L54.4645 6.82843C54.2692 7.02369 54.2692 7.34027 54.4645 7.53553C54.6597 7.7308 54.9763 7.7308 55.1716 7.53553L58.3536 4.35355ZM0 4.5H58V3.5L0 3.5L0 4.5Z" fill="#55A630"/>
</symbol>
<symbol id="round-arrow" viewBox="0 0 50 50">
<g filter="url(#filter0_d_150_203)">
<circle cx="25" cy="22" r="21" fill="#DDF4CB"/>
</g>
<path d="M13.6464 21.6464C13.4512 21.8417 13.4512 22.1583 13.6464 22.3536L16.8284 25.5355C17.0237 25.7308 17.3403 25.7308 17.5355 25.5355C17.7308 25.3403 17.7308 25.0237 17.5355 24.8284L14.7071 22L17.5355 19.1716C17.7308 18.9763 17.7308 18.6597 17.5355 18.4645C17.3403 18.2692 17.0237 18.2692 16.8284 18.4645L13.6464 21.6464ZM36 21.5L14 21.5V22.5L36 22.5V21.5Z" fill="#55A630"/>
<defs>
<filter id="filter0_d_150_203" x="0" y="0" width="50" height="50" filterUnits="userSpaceOnUse" color-interpolation-filters="sRGB">
<feFlood flood-opacity="0" result="BackgroundImageFix"/>
<feColorMatrix in="SourceAlpha" type="matrix" values="0 0 0 0 0 0 0 0 0 0 0 0 0 0 0 0 0 0 127 0" result="hardAlpha"/>
<feOffset dy="3"/>
<feGaussianBlur stdDeviation="2"/>
<feComposite in2="hardAlpha" operator="out"/>
<feColorMatrix type="matrix" values="0 0 0 0 0 0 0 0 0 0 0 0 0 0 0 0 0 0 0.25 0"/>
<feBlend mode="normal" in2="BackgroundImageFix" result="effect1_dropShadow_150_203"/>
<feBlend mode="normal" in="SourceGraphic" in2="effect1_dropShadow_150_203" result="shape"/>
</filter>
</defs>
</symbol>
<symbol id="arrows"  viewBox="0 0 36 16">
<path d="M35.184 8.89412C35.5745 8.5036 35.5745 7.87043 35.184 7.47991L28.8201 1.11595C28.4295 0.725422 27.7964 0.725422 27.4058 1.11595C27.0153 1.50647 27.0153 2.13964 27.4058 2.53016L33.0627 8.18701L27.4058 13.8439C27.0153 14.2344 27.0153 14.8676 27.4058 15.2581C27.7964 15.6486 28.4295 15.6486 28.8201 15.2581L35.184 8.89412ZM0.678833 9.18701L34.4769 9.18701L34.4769 7.18701L0.678833 7.18701L0.678833 9.18701Z" fill="white"/>
</symbol>
</svg>