<svg width="13" height="9" viewBox="0 0 13 9" fill="none" xmlns="http://www.w3.org/2000/svg">
<path d="M12.0239 2.38525C11.97 2.32765 11.8963 2.29159 11.8169 2.28395L3.39408 2.17L3.16119 1.47361C2.99712 1.00809 2.55165 0.693809 2.04848 0.688599H1.18162C1.0387 0.688599 0.922852 0.801969 0.922852 0.941828C0.922852 1.08169 1.0387 1.19506 1.18162 1.19506H2.04848C2.32984 1.20114 2.57758 1.37793 2.66953 1.63822L4.3127 6.48756L4.18333 6.77876C4.03903 7.14291 4.08236 7.55277 4.29977 7.88031C4.5151 8.202 4.87736 8.40053 5.27016 8.41209H10.3032C10.4461 8.41209 10.5619 8.29872 10.5619 8.15886C10.5619 8.019 10.4461 7.90563 10.3032 7.90563H5.27013C5.04831 7.9002 4.84413 7.78601 4.72672 7.60175C4.61062 7.41975 4.58677 7.19553 4.66203 6.99399L4.76555 6.76609L10.2126 6.20898C10.8109 6.14449 11.3031 5.71863 11.4417 5.14541L12.0628 2.60046C12.0908 2.52717 12.0759 2.44475 12.0239 2.38525ZM10.9371 5.03148C10.8531 5.40048 10.533 5.67266 10.1479 5.70254L4.76555 6.24698L3.56228 2.67646L11.4935 2.79041L10.9371 5.03148Z" fill="black"/>
</svg>
