<svg width="25" height="24" viewBox="0 0 25 24" fill="none" xmlns="http://www.w3.org/2000/svg">
<g clip-path="url(#clip0_229_190)">
<path d="M7.5476 1.03315e-07C7.31478 -8.79232e-05 7.0795 0.056073 6.8653 0.174821L6.07123 0.614954C4.26677 1.61502 3.55202 3.84931 3.71881 6.51652C3.8856 9.18372 4.92725 12.3571 6.79396 15.461C8.66067 18.5649 11.0026 21.0177 13.3253 22.4899C15.6481 23.9621 18.0208 24.4851 19.8253 23.485L20.6194 23.0449C21.2723 22.6829 21.4998 21.8682 21.1228 21.2412L18.8304 17.4296C18.4534 16.8027 17.6046 16.5842 16.9516 16.9462L16.1575 17.3863C15.5498 17.7232 14.6098 17.5793 13.5265 16.8927C12.4432 16.2061 11.2859 15.0078 10.3674 13.4805C9.44879 11.9531 8.94648 10.3919 8.86873 9.14789C8.79097 7.9039 9.13116 7.05057 9.73891 6.71378L10.533 6.27365C11.186 5.91169 11.4134 5.09691 11.0364 4.46999V4.46981L8.74402 0.658175C8.50837 0.266368 8.08832 0.0341544 7.64708 0.00343314C7.61407 0.00114445 7.58088 1.03315e-07 7.5476 1.03315e-07ZM7.56511 0.874808C7.71888 0.876568 7.86403 0.95544 7.94995 1.09831L10.2423 4.90995C10.3732 5.12772 10.3013 5.38564 10.0745 5.51134L9.28043 5.95148C8.24356 6.5262 7.8644 7.77803 7.95334 9.20071C8.04229 10.6235 8.59273 12.2903 9.57322 13.9206C10.5537 15.5509 11.7822 16.842 13.0213 17.6273C14.2603 18.4126 15.5791 18.7233 16.616 18.1486L17.4101 17.7085C17.6368 17.5828 17.9054 17.652 18.0363 17.8697L20.3287 21.6814C20.4596 21.8992 20.3877 22.1569 20.1609 22.2826L19.3668 22.7227C17.9916 23.485 15.9976 23.1289 13.8306 21.7553C11.6636 20.3818 9.39276 18.0219 7.58803 15.0209C5.7833 12.0199 4.78971 8.95221 4.6341 6.46379C4.47849 3.97537 5.15437 2.13957 6.52961 1.37735L7.32368 0.937219C7.38035 0.905793 7.43967 0.886604 7.49881 0.878769C7.521 0.875776 7.54319 0.874544 7.56511 0.874808ZM5.55499 6.188C5.42845 6.18492 5.32318 6.28096 5.31997 6.40244C5.31979 6.40974 5.31997 6.41705 5.32052 6.42435C5.46769 8.77845 6.42526 11.7672 8.1835 14.6908C9.94173 17.6143 12.1594 19.9048 14.2094 21.2042C14.3133 21.2737 14.4561 21.2493 14.5286 21.1496C14.601 21.05 14.5755 20.9127 14.4717 20.8432C14.4685 20.8411 14.4652 20.839 14.4619 20.8369C12.4923 19.5885 10.307 17.3414 8.58053 14.4707C6.85411 11.6 5.91956 8.65952 5.77808 6.39786C5.77267 6.28254 5.6752 6.19091 5.55499 6.188Z" fill="black"/>
</g>
<defs>
<clipPath id="clip0_229_190">
<rect width="25" height="24" fill="white"/>
</clipPath>
</defs>
</svg>
